<svg xmlns="http://www.w3.org/2000/svg" width="15" height="13" viewBox="0 0 15 13">
  <defs>
    <style>
      .cls-1 {
        fill: #758594;
        fill-rule: evenodd;
      }
    </style>
  </defs>
  <path id="Фігура_3" data-name="Фігура 3" class="cls-1" d="M1667.86,138.667h7.94a0.45,0.45,0,0,0,.43-0.315l1.75-6.066a0.4,0.4,0,0,0-.07-0.38,0.432,0.432,0,0,0-.35-0.173h-10.71l-0.32-1.394a0.429,0.429,0,0,0-.42-0.339h-2.67a0.434,0.434,0,1,0,0,.867h2.31l1.59,7.041a1.3,1.3,0,0,0-.8,1.192,1.317,1.317,0,0,0,1.32,1.3h7.94a0.434,0.434,0,1,0,0-.867h-7.94A0.433,0.433,0,1,1,1667.86,138.667Zm-0.44,3.033a1.32,1.32,0,1,0,1.32-1.3A1.317,1.317,0,0,0,1667.42,141.7Zm6.19,0a1.315,1.315,0,1,0,1.31-1.3A1.308,1.308,0,0,0,1673.61,141.7Z" transform="translate(-1663 -130)"/>
</svg>
