<svg xmlns="http://www.w3.org/2000/svg" width="16" height="14" viewBox="0 0 16 14">
  <defs>
    <style>
      .cls-1 {
        fill: #758594;
        fill-rule: evenodd;
      }
    </style>
  </defs>
  <path id="Фігура_4" data-name="Фігура 4" class="cls-1" d="M1621.73,132.37a4.333,4.333,0,0,0-3.2-1.37,4.056,4.056,0,0,0-2.51.853,1.02,1.02,0,1,1-2.04,0,4.056,4.056,0,0,0-2.51-.853,4.333,4.333,0,0,0-3.2,1.37,4.865,4.865,0,0,0-1.27,3.359,5.773,5.773,0,0,0,1.59,3.834,33.87,33.87,0,0,0,3.97,3.667c0.55,0.461,1.17.984,1.82,1.542a0.957,0.957,0,0,0,1.24,0c0.65-.558,1.27-1.081,1.82-1.542a33.87,33.87,0,0,0,3.97-3.667,5.773,5.773,0,0,0,1.59-3.834A4.865,4.865,0,0,0,1621.73,132.37Z" transform="translate(-1607 -131)"/>
</svg>
